<?xml version="1.0" encoding="UTF-8" standalone="no"?>
<!-- Created with Inkscape (http://www.inkscape.org/) -->

<svg
   version="1.1"
   id="svg1"
   width="1387"
   height="351"
   viewBox="0 0 1387 351"
   xmlns="http://www.w3.org/2000/svg"
   xmlns:svg="http://www.w3.org/2000/svg">
  <defs
     id="defs1" />
  <g
     id="g1">
    <path
       style="fill:#f5f4f1;fill-opacity:1"
       d="M 14.265181,336.75133 C 14.534316,336.04998 24.48475,318.43679 36.377258,297.61091 48.269766,276.78503 58,259.57789 58,259.37283 58,259.16778 49.45,259 39,259 H 20 v -4.5 -4.5 l 57.75,-0.008 57.75,-0.008 11.5,4.25784 11.5,4.25784 -16.56243,0.27333 -16.56242,0.27333 -15.67657,28.72667 C 101.07647,303.573 91.388515,321.225 88.169797,327 l -5.852213,10.5 -34.270869,0.26326 c -27.450723,0.21087 -34.173488,0.009 -33.781534,-1.01193 z M 298.23775,326.24189 C 294.79352,319.78385 285.23164,302.125 276.98914,287 L 262.00278,259.5 245.25139,259 228.5,258.5 l 12,-4.25331 12,-4.25332 55.75,0.003 L 364,250 v 4.5 4.5 h -16.5 c -9.075,0 -16.5,0.2052 -16.5,0.45599 0,0.2508 1.27101,2.6133 2.82446,5.25 7.22006,12.25474 41.17554,72.2332 41.17554,72.73188 0,0.30917 -15.8625,0.55848 -35.25,0.55402 l -35.25,-0.008 z M 403.2463,206.75 403.5,75.5 h 98 98 l 8.5,2.266279 c 10.53157,2.807938 24.65596,9.681882 32.22183,15.681456 24.93733,19.774785 35.24125,55.515735 26.26998,91.122095 -6.21734,24.67625 -21.33073,41.9438 -45.96518,52.51676 -4.19575,1.80079 -6.1184,3.2033 -6.3287,4.61658 -0.19598,1.31707 10.78798,18.58294 31.2761,49.16341 L 677.05219,338 H 641.51162 605.97104 L 575.23147,291.75 544.49191,245.5 503.24596,245.23891 462,244.97781 V 291.48891 338 H 432.4963 402.99259 Z M 590.5,191.69586 c 7.64123,-3.57118 11.88806,-7.6607 15.78043,-15.19586 2.81694,-5.45325 3.10215,-6.86569 3.12991,-15.5 0.025,-7.77278 -0.38372,-10.42703 -2.248,-14.59882 -2.83342,-6.34047 -9.10755,-12.59096 -15.66234,-15.60334 L 586.5,128.5 524.25,128.21412 462,127.92824 v 33.57228 33.57228 L 523.25,194.7864 584.5,194.5 Z M 707.2463,206.75 707.5,75.5 l 29.69969,-0.264803 29.69969,-0.264803 5.37191,7.264803 c 14.58878,19.729433 73.33355,104.717933 82.2628,119.013013 1.63125,2.61152 3.27355,4.74902 3.64955,4.75 0.37601,9.9e-4 11.14583,-15.18571 23.93294,-33.74821 12.78712,-18.5625 25.11949,-36.45 27.40528,-39.75 30.60318,-44.181946 38.99504,-56.11541 39.90315,-56.743476 0.59125,-0.408912 13.67499,-0.633912 29.07499,-0.5 l 28,0.243476 0.2537,131.25 0.2537,131.25 h -30.01549 -30.0155 l 0.2618,-80.0001 c 0.14398,-44.00006 -0.0158,-80.00006 -0.35513,-80 -0.33931,5e-5 -4.61431,5.69888 -9.5,12.66405 -10.60844,15.12367 -15.95372,22.67592 -40.88308,57.76291 -10.45,14.70792 -22.375,31.55947 -26.5,37.44789 -11.39291,16.26334 -11.82352,16.74677 -13.40972,15.05457 C 855.8534,300.14319 841.76941,280.6 825.29252,257.5 c -16.47689,-23.1 -34.8318,-48.75 -40.78869,-57 -5.9569,-8.25 -12.21967,-16.94928 -13.91728,-19.33173 L 767.5,176.83653 767.24409,257.41827 766.98817,338 H 736.99038 706.99259 Z M 1032,337.39853 c 0,-0.33081 2.4268,-5.16831 5.3928,-10.75 26.4235,-49.72578 52.2841,-98.58612 72.5894,-137.14853 24.8104,-47.11823 44.9108,-84.88313 55.0879,-103.5 l 5.74,-10.5 32.8449,-0.242328 c 18.0648,-0.13328 33.3314,0.09172 33.9258,0.5 1.1127,0.764258 27.6603,50.938088 87.4315,165.242328 49.527,94.71354 49.9877,95.60151 49.9877,96.34675 0,0.37412 -14.8765,0.56164 -33.0589,0.41673 L 1308.8822,337.5 1292.5156,306 l -16.3667,-31.5 -72.4868,-0.25651 -72.4868,-0.25651 -7.4427,14.25651 c -4.0935,7.84108 -11.657,22.24401 -16.8078,32.00651 l -9.3651,17.75 h -32.7799 C 1046.7509,338 1032,337.72934 1032,337.39853 Z m 219,-112.0001 c 0,-0.33087 -8.4867,-16.86837 -18.8594,-36.75 -10.3727,-19.88164 -20.9933,-40.31093 -23.6013,-45.39843 -4.1692,-8.13302 -6.5393,-11.16889 -6.5393,-8.3762 0,0.4806 -5.2146,10.9431 -11.5881,23.25 -26.4926,51.15645 -34.4119,66.62971 -34.4119,67.23613 0,0.35204 21.375,0.64007 47.5,0.64007 26.125,0 47.5,-0.27071 47.5,-0.60157 z M 174.86251,258.52918 c -0.25895,-0.25896 -9.43209,-3.85896 -20.38475,-8 L 134.56384,243 H 77.28192 20 v -4.5 -4.5 h 57.567758 57.567762 l 17.18224,6.52504 c 9.45023,3.58877 18.18355,6.94902 19.40738,7.46723 2.01839,0.85465 2.7617,0.15548 8,-7.52496 L 185.5,232.00015 h 8 8 l 5.76367,8.45075 5.76367,8.45074 3.73633,-1.34873 c 2.05498,-0.74181 10.88964,-4.09468 19.63258,-7.45082 L 252.29251,234 H 308.14625 364 v 4.5 4.5 h -55.47089 -55.47089 l -19.77911,7.41548 c -10.87851,4.07851 -20.48462,7.69519 -21.3469,8.03707 -1.16479,0.46181 -3.14484,-1.82992 -7.70295,-8.91548 L 198.0941,240 H 193.5 188.9059 l -6.11131,9.5 c -5.77876,8.98305 -6.80735,10.1539 -7.93208,9.02918 z M 166.5,239.30385 c -2.2,-0.8762 -9.53671,-3.77801 -16.3038,-6.44847 L 137.89241,228 H 78.946203 20 v -4.5 -4.5 h 172 172 v 4.5 4.5 h -56.90053 -56.90052 l -16.81342,6.5 c -9.24738,3.575 -17.14319,6.5 -17.54626,6.5 -0.40306,0 -2.89428,-3.14773 -5.53605,-6.99497 l -4.80322,-6.99496 -12,0.0267 -12,0.0267 -4.80659,6.96824 c -2.64363,3.83253 -5.11863,6.94505 -5.5,6.91671 -0.38138,-0.0283 -2.49341,-0.76842 -4.69341,-1.64462 z M 20,208.5 V 204 l 8.75,-0.0596 c 8.353772,-0.0568 257.20076,-0.0331 310,0.0296 L 364,204 v 4.5 4.5 H 192 20 Z m 76.110556,-15.75 c 1.178998,-2.24633 23.598754,-41.97741 50.362664,-89.25 35.62431,-62.922538 48.07681,-84.315601 48.71018,-83.682792 0.68773,0.687128 48.94709,85.033322 63.04198,110.182792 4.1613,7.425 13.91294,24.74632 21.67031,38.49183 C 287.65306,182.23733 294,193.8309 294,194.25531 c 0,0.42441 -14.88216,0.65308 -33.07146,0.50817 L 227.85708,194.5 l -15.89725,-29 c -8.74348,-15.95 -16.51751,-30.05832 -17.27561,-31.35182 -1.36819,-2.33445 -1.40062,-2.31229 -4.38979,3 -1.65628,2.9435 -9.19304,17.16432 -16.74836,31.60182 L 159.80912,195 H 127.36938 94.929632 Z"
       id="path1" />
  </g>
</svg>
